<?xml version="1.0" standalone="no"?>
<!DOCTYPE svg PUBLIC "-//W3C//DTD SVG 20010904//EN"
 "http://www.w3.org/TR/2001/REC-SVG-20010904/DTD/svg10.dtd">
<svg version="1.0" xmlns="http://www.w3.org/2000/svg"
 width="2084.000000pt" height="2084.000000pt" viewBox="0 0 2084.000000 2084.000000"
 preserveAspectRatio="xMidYMid meet">

<g transform="translate(0.000000,2084.000000) scale(0.100000,-0.100000)"
fill="#000000" stroke="none">
<path d="M10030 20833 c-774 -33 -1476 -133 -2185 -313 -3141 -797 -5745
-3032 -7020 -6025 -696 -1637 -959 -3453 -759 -5250 324 -2918 1896 -5586
4299 -7301 1455 -1039 3123 -1677 4895 -1874 355 -39 573 -51 1010 -57 986
-13 1796 82 2725 317 1619 410 3135 1220 4375 2335 168 152 204 194 55 65
-1175 -1017 -2554 -1608 -4100 -1756 -230 -21 -827 -30 -1077 -15 -1075 65
-2094 356 -3012 860 -1678 921 -2931 2459 -3476 4267 -321 1063 -389 2204
-200 3314 421 2459 2107 4540 4432 5470 1340 537 2824 657 4235 344 2400 -532
4396 -2291 5243 -4621 201 -552 336 -1159 395 -1778 23 -231 31 -836 16 -1076
-26 -395 -95 -709 -228 -1044 -362 -913 -1118 -1625 -2061 -1944 -214 -72
-470 -128 -742 -163 -71 -8 -888 -12 -3262 -15 -1743 -2 -3168 -6 -3168 -8 0
-18 110 -245 170 -351 398 -703 1012 -1200 1875 -1516 552 -202 1163 -319
1985 -379 229 -16 1072 -23 1235 -10 618 51 1187 202 1695 451 85 42 160 75
166 73 13 -4 458 445 620 627 1141 1278 1932 2758 2344 4385 177 699 272 1329
311 2070 15 282 6 1019 -15 1285 -61 760 -179 1416 -381 2121 l-55 193 -87
120 c-173 242 -366 484 -582 731 -148 169 -628 647 -803 799 -1536 1336 -3373
2090 -5398 2216 -238 15 -812 15 -1050 0 -2031 -127 -3872 -885 -5415 -2231
-176 -153 -652 -630 -809 -811 -954 -1097 -1598 -2321 -1962 -3731 l-55 -212
6 110 c9 160 41 468 71 672 328 2276 1482 4328 3264 5804 1424 1179 3179 1904
5025 2073 535 49 1174 50 1705 1 685 -63 1350 -200 2000 -410 416 -135 967
-359 1027 -417 18 -17 33 -29 33 -25 0 8 -239 213 -400 343 -1864 1498 -4183
2308 -6560 2292 -157 -1 -314 -3 -350 -5z"/>
<path d="M17385 18160 c10 -11 20 -20 23 -20 3 0 -3 9 -13 20 -10 11 -20 20
-23 20 -3 0 3 -9 13 -20z"/>
<path d="M17480 18077 c0 -2 15 -16 33 -33 l32 -29 -29 33 c-28 30 -36 37 -36
29z"/>
<path d="M17780 17788 c57 -60 106 -108 107 -108 8 0 -5 13 -104 110 l-108
105 105 -107z"/>
<path d="M18010 17547 c0 -2 15 -16 33 -33 l32 -29 -29 33 c-28 30 -36 37 -36
29z"/>
<path d="M18145 17400 c10 -11 20 -20 23 -20 3 0 -3 9 -13 20 -10 11 -20 20
-23 20 -3 0 3 -9 13 -20z"/>
<path d="M18220 17316 c0 -2 8 -10 18 -17 15 -13 16 -12 3 4 -13 16 -21 21
-21 13z"/>
<path d="M18290 17236 c0 -2 8 -10 18 -17 15 -13 16 -12 3 4 -13 16 -21 21
-21 13z"/>
<path d="M18350 17166 c0 -2 8 -10 18 -17 15 -13 16 -12 3 4 -13 16 -21 21
-21 13z"/>
<path d="M18455 17040 c10 -11 20 -20 23 -20 3 0 -3 9 -13 20 -10 11 -20 20
-23 20 -3 0 3 -9 13 -20z"/>
<path d="M18530 16946 c0 -2 8 -10 18 -17 15 -13 16 -12 3 4 -13 16 -21 21
-21 13z"/>
<path d="M18570 16896 c0 -2 8 -10 18 -17 15 -13 16 -12 3 4 -13 16 -21 21
-21 13z"/>
<path d="M12471 12150 c-923 -72 -1766 -550 -2357 -1335 -667 -885 -937 -2054
-738 -3199 15 -87 43 -218 65 -299 l10 -37 2727 3 2727 3 85 21 c245 61 444
175 620 353 193 195 339 470 394 740 43 213 43 389 0 655 -134 823 -513 1574
-1079 2140 -529 530 -1173 853 -1872 939 -158 20 -436 27 -582 16z"/>
</g>
</svg>
